<svg width="40" height="40" viewBox="0 0 40 40" fill="none" xmlns="http://www.w3.org/2000/svg">
  <g clip-path="url(#big_upload_img)">
  <path d="M33.3272 14.7033C31.4785 7.33865 24.0097 2.8671 16.6451 4.71581C10.8898 6.16057 6.71076 11.1348 6.28018 17.053C2.19368 17.7269 -0.572818 21.5859 0.101093 25.6724C0.700168 29.3054 3.8481 31.966 7.53004 31.9514H13.7794V29.4516H7.53004C4.76894 29.4516 2.53059 27.2133 2.53059 24.4522C2.53059 21.6911 4.76894 19.4527 7.53004 19.4527C8.22036 19.4527 8.77991 18.8932 8.77991 18.2029C8.77366 11.9903 13.8049 6.949 20.0174 6.94283C25.3953 6.93744 30.0247 10.7394 31.065 16.0156C31.1677 16.5424 31.5952 16.9449 32.1274 17.0155C35.5443 17.5021 37.9198 20.6665 37.4333 24.0834C36.9963 27.1517 34.3766 29.4362 31.2774 29.4516H26.278V31.9514H31.2774C36.1094 31.9368 40.0146 28.0078 39.9999 23.1758C39.9877 19.1536 37.2346 15.6578 33.3272 14.7033Z" fill="black"/>
  <path d="M19.1413 19.8151L14.1418 24.8146L15.9042 26.5769L18.7788 23.7147V35.7009H21.2786V23.7147L24.1408 26.5769L25.9031 24.8146L20.9036 19.8151C20.4161 19.3305 19.6288 19.3305 19.1413 19.8151Z" fill="black"/>
  </g>
  <defs>
  <clipPath id="big_upload_img">
  <rect width="40" height="40" fill="white"/>
  </clipPath>
  </defs>
  </svg>
